HIERARCHY
ROOT ROOT
{
	OFFSET 0.000000 56.020000 -5.659234
	CHANNELS 6 Xposition Yposition Zposition Xrotation Yrotation Zrotation 
	JOINT C_spine0001_bind_JNT
	{
		OFFSET 0.000000 1.618999 0.000000
		CHANNELS 3 Xrotation Yrotation Zrotation
		JOINT C_spine0002_bind_JNT
		{
			OFFSET 0.000000 4.942001 0.000001
			CHANNELS 3 Xrotation Yrotation Zrotation
			JOINT C_spine0003_bind_JNT
			{
				OFFSET 0.000000 4.942001 -0.000000
				CHANNELS 3 Xrotation Yrotation Zrotation
				JOINT C_neck0001_bind_JNT
				{
					OFFSET 0.000000 17.026009 -0.000000
					CHANNELS 3 Xrotation Yrotation Zrotation
					JOINT C_neck0002_bind_JNT
					{
						OFFSET 0.000000 3.249985 0.000000
						CHANNELS 3 Xrotation Yrotation Zrotation
						JOINT C_head_bind_JNT
						{
							OFFSET 0.000000 5.278008 0.000000
							CHANNELS 3 Xrotation Yrotation Zrotation
							End Site
							{
								OFFSET 0.000000 0.000000 0.000000
							}
						}
					}
				}
				JOINT L_clavicle_bind_JNT
				{
					OFFSET 4.590000 12.067001 0.834000
					CHANNELS 3 Xrotation Yrotation Zrotation
					JOINT L_armUpper0001_bind_JNT
					{
						OFFSET 7.812635 0.512001 -3.452945
						CHANNELS 3 Xrotation Yrotation Zrotation
						JOINT L_armLower0001_bind_JNT
						{
							OFFSET 15.265892 -6.552116 -0.058157
							CHANNELS 3 Xrotation Yrotation Zrotation
							JOINT L_hand0001_bind_JNT
							{
								OFFSET 14.747667 -6.369995 5.049225
								CHANNELS 3 Xrotation Yrotation Zrotation
								End Site
								{
									OFFSET 0.000000 0.000000 0.000000
								}
							}
						}
					}
				}
				JOINT R_clavicle_bind_JNT
				{
					OFFSET -4.590000 12.067001 0.834000
					CHANNELS 3 Xrotation Yrotation Zrotation
					JOINT R_armUpper0001_bind_JNT
					{
						OFFSET -7.812635 0.512001 -3.452945
						CHANNELS 3 Xrotation Yrotation Zrotation
						JOINT R_armLower0001_bind_JNT
						{
							OFFSET -15.265890 -6.552124 -0.058160
							CHANNELS 3 Xrotation Yrotation Zrotation
							JOINT R_hand0001_bind_JNT
							{
								OFFSET -14.746784 -6.369629 5.048937
								CHANNELS 3 Xrotation Yrotation Zrotation
								End Site
								{
									OFFSET 0.000000 0.000000 0.000000
								}
							}
						}
					}
				}
			}
		}
	}
	JOINT C_pelvis0001_bind_JNT
	{
		OFFSET -0.000000 0.000000 0.000000
		CHANNELS 3 Xrotation Yrotation Zrotation
		JOINT L_legUpper0001_bind_JNT
		{
			OFFSET 6.599999 -6.027000 0.539000
			CHANNELS 3 Xrotation Yrotation Zrotation
			JOINT L_legLower0001_bind_JNT
			{
				OFFSET -0.140713 -19.187443 0.040261
				CHANNELS 3 Xrotation Yrotation Zrotation
				JOINT L_foot0001_bind_JNT
				{
					OFFSET -0.132215 -18.028637 -1.138370
					CHANNELS 3 Xrotation Yrotation Zrotation
					JOINT L_foot0002_bind_JNT
					{
						OFFSET 0.007014 -4.693133 9.886524
						CHANNELS 3 Xrotation Yrotation Zrotation
						End Site
						{
							OFFSET 0.000000 0.000000 0.000000
						}
					}
				}
			}
		}
		JOINT R_legUpper0001_bind_JNT
		{
			OFFSET -6.599999 -6.027000 0.539000
			CHANNELS 3 Xrotation Yrotation Zrotation
			JOINT R_legLower0001_bind_JNT
			{
				OFFSET 0.140710 -19.187164 0.040550
				CHANNELS 3 Xrotation Yrotation Zrotation
				JOINT R_foot0001_bind_JNT
				{
					OFFSET 0.132215 -18.028633 -1.138362
					CHANNELS 3 Xrotation Yrotation Zrotation
					JOINT R_foot0002_bind_JNT
					{
						OFFSET -0.007014 -4.693128 9.886505
						CHANNELS 3 Xrotation Yrotation Zrotation
						End Site
						{
							OFFSET 0.000000 0.000000 0.000000
						}
					}
				}
			}
		}
	}
}
MOTION
Frames: 9
Frame Time: 0.033333
0.000000 50.123283 0.000000 0.029230 -0.985701 -0.010588 -4.305450 -0.213446 0.076106 3.878820 0.941781 -0.145096 1.687766 1.310147 -0.385695 -0.171245 -0.213080 0.825935 0.238144 -1.708433 -0.684283 0.031213 -0.336721 -0.009467 0.667814 12.732669 -3.375639 -1.048410 7.904301 -60.499866 23.343884 -0.897123 2.154684 14.773641 -40.867203 -22.275696 -1.443334 -14.356322 1.918362 0.226224 -4.859602 59.012756 18.881079 -1.234565 -4.656347 -3.107176 24.954243 32.225128 -3.188349 -0.517741 0.065942 10.687705 0.381319 0.471079 -4.035367 2.175535 1.443174 -3.295860 9.607632 -1.233780 -0.190594 0.148604 0.184507 -0.550467 -0.754135 -3.398689 7.039229 -2.305480 0.074802 -2.386477 -8.097929 2.634082 -0.267808 0.075151 -0.095841 
0.028173 50.056297 -0.081040 0.004422 -0.862955 -0.005923 -4.609460 -0.135478 -0.028270 4.143486 0.985872 -0.430509 1.882196 1.223898 -0.130239 -1.118225 -0.412497 0.273624 0.746194 -1.490211 -0.366494 0.279247 -0.429937 0.244600 0.295914 12.264516 -3.360788 -1.263647 8.384488 -60.669281 23.029848 -0.189519 2.216342 15.177352 -41.102814 -23.421675 -1.728871 -14.075795 2.009311 0.650017 -5.599467 59.349628 18.839546 0.278571 -5.688979 -2.865514 24.323273 32.361774 -3.597499 -0.405433 0.178390 10.956509 0.760533 0.078151 -3.394957 2.312537 1.284882 -3.463189 9.325165 -0.940046 -0.389702 0.460915 0.291603 -0.493044 -0.697657 -3.619685 7.234473 -1.310807 0.573330 -2.194007 -8.714947 2.593459 -0.515773 -0.251412 -0.334242 
-0.082161 50.063198 -0.101518 0.006410 -0.481744 0.005475 -4.251755 -0.331697 0.144783 3.726908 1.037279 -0.443468 2.090216 1.314531 -0.224674 -1.346892 -0.318798 0.284198 0.627786 -1.933520 -0.303879 0.332272 -0.564004 0.358102 0.015769 12.240553 -3.483317 -1.447869 8.239219 -60.680756 23.445616 -0.591033 2.690746 15.050610 -40.647621 -23.147675 -1.963318 -14.389873 2.389824 0.472430 -5.541121 59.238503 18.778042 0.101130 -5.762091 -3.345427 24.178028 32.343559 -3.377630 -0.324180 0.338652 11.285556 0.742167 0.302384 -4.132635 2.433183 1.312234 -3.324097 9.366521 -0.852311 -0.242720 0.258985 -0.020031 -0.831954 -0.905425 -3.768022 7.138505 -1.009486 0.625106 -2.059955 -9.153624 2.505272 -0.500075 0.000335 -0.373501 
-0.107240 50.148033 -0.119797 0.002233 -0.283574 -0.005537 -4.142283 -0.407777 0.211637 3.640275 1.182341 -0.467930 1.883947 1.324316 0.019565 -1.504863 -0.402623 -0.000343 0.797665 -1.750294 -0.331458 0.266321 -0.713063 0.384872 0.103510 12.280468 -3.777338 -1.443760 7.763646 -60.774010 23.553932 -0.690181 2.949763 15.254465 -40.344067 -23.131516 -2.059461 -14.356401 2.248320 0.378073 -5.706826 59.156750 19.027933 -0.060532 -5.618948 -3.568571 24.319494 32.096657 -3.268614 -0.202209 0.226139 11.398997 0.861677 0.499120 -4.492957 2.354965 1.430073 -3.182778 9.247683 -1.086793 -0.396762 0.290235 0.064944 -0.705964 -0.533189 -3.671342 6.595325 -1.247197 0.915597 -1.905614 -9.127263 2.257876 -0.292443 -0.105070 -0.384858 
-0.134182 50.154415 -0.147171 0.009166 0.032753 0.001188 -4.301775 -0.431941 0.286517 3.489162 1.122313 -0.323685 1.868330 1.322199 -0.125131 -1.374297 -0.454514 0.068150 0.754970 -1.730991 -0.202517 0.313011 -0.776976 0.251350 0.161627 12.428121 -3.759383 -1.695221 7.485013 -60.931465 23.981827 -0.254406 3.193590 15.273096 -40.436352 -23.132736 -2.068211 -14.371691 2.187317 0.473438 -5.710114 59.458534 19.096533 -0.179310 -5.685874 -3.757321 24.300571 31.794426 -3.494910 -0.267720 0.287837 11.798966 1.091555 0.505717 -4.839300 2.169872 1.360816 -2.933390 9.190877 -0.986248 -0.451213 0.252833 -0.058098 -0.298128 -0.495422 -3.832198 6.023389 -1.338233 1.160036 -1.594491 -9.062609 2.222713 -0.198010 -0.174125 -0.410670 
-0.146586 50.154942 -0.159949 0.002936 -0.141795 -0.003184 -4.249726 -0.124901 0.330478 3.384203 1.168633 -0.369372 1.845460 1.279037 0.043243 -1.265579 -0.448283 0.083339 0.656888 -1.711992 -0.330322 0.229919 -0.926595 0.207953 0.227258 12.362005 -3.790356 -1.757147 7.579185 -61.140976 23.814922 -0.446804 3.184935 15.242863 -40.313652 -23.333710 -2.097803 -14.312809 2.071508 0.399719 -5.586325 59.541618 19.177244 -0.168155 -5.590071 -3.862222 24.162634 31.609718 -3.489328 0.014364 0.323050 11.999578 1.254648 0.476338 -5.052924 2.130956 1.372706 -3.001012 9.102891 -1.016212 -0.366949 0.253045 -0.097743 -0.091049 -0.284037 -3.819241 5.446224 -1.561428 1.237663 -1.284963 -9.041204 2.145258 -0.233182 0.025506 -0.362267 
-0.149864 50.143948 -0.219711 0.006021 -0.122452 -0.006115 -4.273387 -0.031074 0.316959 3.307215 1.148492 -0.290963 1.893720 1.321092 -0.027345 -1.225412 -0.529853 0.153415 0.595287 -1.704444 -0.265606 0.154213 -0.967046 0.080274 0.217123 12.493726 -3.848825 -2.024418 7.500378 -61.065331 23.722485 -0.457467 3.063161 15.130052 -40.355099 -23.375240 -2.147976 -14.287082 2.094357 0.395365 -5.350863 59.787601 19.310043 -0.430769 -5.648890 -4.243748 24.137514 31.555578 -3.672782 0.078506 0.357754 12.221977 1.377205 0.509953 -5.114783 2.037357 1.214967 -2.960457 9.077462 -0.886971 -0.381929 0.330025 -0.134026 0.014138 -0.228868 -3.893511 5.226668 -1.683117 1.392155 -1.159978 -8.982247 2.054771 -0.093715 -0.133677 -0.397252 
-0.140257 50.163788 -0.169243 0.007905 -0.154901 -0.004298 -4.288082 0.064068 0.367670 3.374659 1.192864 -0.325633 1.796816 1.336387 0.042864 -1.217287 -0.550055 0.136928 0.692809 -1.865496 -0.307571 0.074711 -0.846438 0.070785 0.114835 12.484687 -3.871362 -1.852388 7.578680 -61.160313 23.458496 -0.559950 2.956957 15.321234 -40.336216 -23.384180 -2.155714 -14.097257 1.971902 0.283842 -5.221756 59.992641 19.585463 -0.666942 -5.541500 -4.191759 24.152792 31.504194 -3.646356 0.075638 0.399548 12.474778 1.417517 0.315931 -5.297733 2.142461 1.326599 -3.051182 9.020312 -0.848281 -0.342087 0.409916 -0.168832 0.187335 0.035652 -3.906832 4.870885 -2.039302 1.464728 -0.950117 -8.757891 2.002524 -0.109416 -0.170741 -0.409929 
-0.141982 50.182152 -0.121776 0.006987 0.025853 -0.003348 -4.274770 -0.016741 0.276566 3.332134 1.150949 -0.202651 1.772210 1.293584 0.016123 -1.171503 -0.475877 0.174246 0.591577 -1.983916 -0.308425 0.081153 -0.750708 0.011885 0.092591 12.689131 -3.783817 -1.806269 7.384168 -61.095833 23.568888 -0.698232 2.727787 15.060956 -40.632286 -23.469749 -2.102254 -14.078562 1.987492 0.311829 -5.047781 60.142559 19.938606 -0.693534 -5.411750 -4.466846 24.249180 31.505154 -3.641045 -0.013449 0.372294 12.741679 1.359575 0.263597 -5.478548 2.130524 1.334105 -3.099662 8.945600 -0.852016 -0.404126 0.328928 -0.091024 0.143495 -0.004324 -3.835414 4.920444 -2.115884 1.506343 -1.034174 -8.652095 1.898634 -0.020256 -0.101616 -0.360312 
